<?xml version="1.0" encoding="UTF-8"?>
<svg width="128px" height="127px" viewBox="0 0 128 127" version="1.1" xmlns="http://www.w3.org/2000/svg" xmlns:xlink="http://www.w3.org/1999/xlink">
    <!-- Generator: Sketch 47.1 (45422) - http://www.bohemiancoding.com/sketch -->
    <title>THE MOM TEST Copy 2</title>
    <desc>Created with Sketch.</desc>
    <defs></defs>
    <g id="Page-1" stroke="none" stroke-width="1" fill="none" fill-rule="evenodd">
        <g id="Desktop-Copy-4" transform="translate(-122.000000, -95.000000)" fill="#F10479">
            <path d="M152.303887,95 L122,95 L122,103.242184 L131.900275,103.242184 L131.900275,130.682628 L142.403612,130.682628 L142.403612,103.242184 L152.303887,103.242184 L152.303887,95 Z M187.98508,95 L177.481743,95 L177.481743,108.720222 L166.073812,108.720222 L166.073812,95 L155.570475,95 L155.570475,130.682628 L166.073812,130.682628 L166.073812,116.610605 L177.481743,116.610605 L177.481743,130.682628 L187.98508,130.682628 L187.98508,95 Z M204.519042,123.144044 L204.519042,116.15829 L218.841775,116.15829 L218.841775,108.770479 L204.519042,108.770479 L204.519042,102.538583 L219.696113,102.538583 L219.696113,95 L194.015705,95 L194.015705,130.682628 L220.047899,130.682628 L220.047899,123.144044 L204.519042,123.144044 Z M124.764036,175.914127 L133.558697,175.914127 L133.558697,153.398892 C133.558697,151.99169 133.458186,150.584488 133.357676,149.328057 L133.458186,149.328057 C133.558697,150.383459 133.809973,151.539375 134.061249,152.393748 L140.443659,175.914127 L148.987044,175.914127 L154.967413,152.393748 C155.168433,151.589632 155.419709,150.383459 155.52022,149.227543 L155.62073,149.227543 C155.52022,150.685002 155.469965,152.092204 155.469965,153.398892 L155.469965,175.914127 L165.068708,175.914127 L165.068708,140.2315 L150.4947,140.2315 L145.921476,158.876929 C145.469179,160.635932 145.117393,162.595964 145.016883,163.852394 L144.916372,163.852394 C144.815862,162.595964 144.514331,160.686189 144.062034,158.977444 L139.137024,140.2315 L124.764036,140.2315 L124.764036,175.914127 Z M187.382018,176.7685 C176.225363,176.7685 169.089124,169.53146 169.089124,158.072814 C169.089124,146.614167 176.225363,139.377127 187.382018,139.377127 C198.538673,139.377127 205.674912,146.614167 205.674912,158.072814 C205.674912,169.53146 198.538673,176.7685 187.382018,176.7685 Z M187.382018,168.677087 C192.106007,168.677087 194.920298,164.757024 194.920298,158.072814 C194.920298,151.388603 192.106007,147.46854 187.382018,147.46854 C182.658029,147.46854 179.843738,151.388603 179.843738,158.072814 C179.843738,164.757024 182.658029,168.677087 187.382018,168.677087 Z M209.695328,175.914127 L218.489988,175.914127 L218.489988,153.398892 C218.489988,151.99169 218.389478,150.584488 218.288967,149.328057 L218.389478,149.328057 C218.489988,150.383459 218.741264,151.539375 218.99254,152.393748 L225.374951,175.914127 L233.918335,175.914127 L239.898704,152.393748 C240.099725,151.589632 240.351001,150.383459 240.451512,149.227543 L240.552022,149.227543 C240.451512,150.685002 240.401256,152.092204 240.401256,153.398892 L240.401256,175.914127 L250,175.914127 L250,140.2315 L235.425991,140.2315 L230.852768,158.876929 C230.400471,160.635932 230.048685,162.595964 229.948174,163.852394 L229.847664,163.852394 C229.747154,162.595964 229.445622,160.686189 228.993325,158.977444 L224.068316,140.2315 L209.695328,140.2315 L209.695328,175.914127 Z M152.303887,185.463 L122,185.463 L122,193.705184 L131.900275,193.705184 L131.900275,221.145627 L142.403612,221.145627 L142.403612,193.705184 L152.303887,193.705184 L152.303887,185.463 Z M166.073812,213.607044 L166.073812,206.62129 L180.396545,206.62129 L180.396545,199.233478 L166.073812,199.233478 L166.073812,193.001583 L181.250883,193.001583 L181.250883,185.463 L155.570475,185.463 L155.570475,221.145627 L181.60267,221.145627 L181.60267,213.607044 L166.073812,213.607044 Z M199.543777,222 C209.142521,222 215.022379,217.47685 215.022379,210.038781 C215.022379,204.058172 212.057322,200.741195 205.27287,199.233478 L200.146839,198.077562 C196.47821,197.273447 195.32234,196.469331 195.32234,194.810843 C195.32234,193.252869 197.031017,192.297982 199.795053,192.297982 C203.212407,192.297982 206.931292,193.95647 209.393797,196.67036 L215.374166,189.98615 C211.806046,186.468144 206.579505,184.608627 200.599136,184.608627 C191.502945,184.608627 185.874362,188.729719 185.874362,195.514444 C185.874362,201.444796 189.341971,205.214088 196.226934,206.721805 L200.749902,207.726949 C204.066745,208.43055 205.071849,209.184408 205.071849,210.993668 C205.071849,212.853186 203.111896,213.958844 199.945819,213.958844 C196.076168,213.958844 192.709069,212.250099 190.246565,208.98338 L183.160581,215.466561 C186.577935,219.637911 192.608559,222 199.543777,222 Z M246.934433,185.463 L216.630546,185.463 L216.630546,193.705184 L226.530821,193.705184 L226.530821,221.145627 L237.034158,221.145627 L237.034158,193.705184 L246.934433,193.705184 L246.934433,185.463 Z" id="THE-MOM-TEST-Copy-2"></path>
        </g>
    </g>
</svg>